<svg xmlns:dc="http://purl.org/dc/elements/1.1/" xmlns:cc="http://creativecommons.org/ns#" xmlns:rdf="http://www.w3.org/1999/02/22-rdf-syntax-ns#" xmlns:svg="http://www.w3.org/2000/svg" xmlns="http://www.w3.org/2000/svg" xmlns:sodipodi="http://sodipodi.sourceforge.net/DTD/sodipodi-0.dtd" xmlns:inkscape="http://www.inkscape.org/namespaces/inkscape" version="1.1" x="0px" y="0px" viewBox="0 0 100 100"><g transform="translate(0,-952.36218)"><path style="text-indent:0;text-transform:none;direction:ltr;block-progression:tb;baseline-shift:baseline;color:#000000;enable-background:accumulate;" d="m 47.597244,961.3697 c -0.55868,-0.01 -1.12778,0.017 -1.6875,0.031 -2.98518,0.076 -5.95694,0.4788 -8.90625,1.2188 -21.92354,5.50086 -35.28219,27.79516 -29.7812499,49.7188 5.5009399,21.9235 27.7952099,35.2821 49.7187499,29.7812 21.92353,-5.501 35.2822,-27.7952 29.78125,-49.71884 a 3.0002996,3.0003005 0 1 0 -5.8125,1.4376 c 4.71179,18.77844 -6.62784,37.75694 -25.40625,42.46874 -18.77849,4.7118 -37.75703,-6.6278 -42.46875,-25.4063 -4.7117999,-18.77844 6.62783,-37.75694 25.40625,-42.46874 10.07399,-2.5277 20.73378,-0.4644 29.125,5.6563 a 3.0002996,3.0003005 0 1 0 3.53125,-4.8438 c -6.90933,-5.03966 -15.11974,-7.74546 -23.5,-7.87496 z m 43.25,3.93746 a 3.0003,3.0003 0 0 0 -2.03125,0.9687 c -10.65722,11.1503 -29.67379,31.9077 -41.03125,43.87504 l -14.8125,-13.06244 a 3.0103986,3.0103986 0 1 0 -4,4.50004 l 17,15 a 3.0003,3.0003 0 0 0 4.15625,-0.1563 c 11.17126,-11.6878 31.94894,-34.43774 43,-46.00004 a 3.0003,3.0003 0 0 0 -2.28125,-5.125 z" fill="#000000" fill-opacity="0.5" stroke="none" marker="none" visibility="visible" display="inline" overflow="visible"></path></g></svg>