<svg xmlns:dc="http://purl.org/dc/elements/1.1/" xmlns:cc="http://creativecommons.org/ns#" xmlns:rdf="http://www.w3.org/1999/02/22-rdf-syntax-ns#" xmlns:svg="http://www.w3.org/2000/svg" xmlns="http://www.w3.org/2000/svg" xmlns:sodipodi="http://sodipodi.sourceforge.net/DTD/sodipodi-0.dtd" xmlns:inkscape="http://www.inkscape.org/namespaces/inkscape" version="1.1" x="0px" y="0px" viewBox="0 0 100 100"><g transform="translate(0,-952.36218)"><path style="color:#000000;enable-background:accumulate;" d="m 30,960.36217 c -2.216,0 -4,1.784 -4,4 l 0,12 c 0,2.216 1.784,4 4,4 2.216,0 4,-1.784 4,-4 l 0,-12 c 0,-2.216 -1.784,-4 -4,-4 z m 40,0 c -2.216,0 -4,1.784 -4,4 l 0,12 c 0,2.216 1.784,4 4,4 2.216,0 4,-1.784 4,-4 l 0,-12 c 0,-2.216 -1.784,-4 -4,-4 z m -58,10 c -1.108,0 -2,0.892 -2,2 l 0,18 80,0 0,-18 c 0,-1.108 -0.892,-2 -2,-2 l -12,0 0,6 c 0,3.324 -2.676,6 -6,6 -3.324,0 -6,-2.676 -6,-6 l 0,-6 -28,0 0,6 c 0,3.324 -2.676,6 -6,6 -3.324,0 -6,-2.676 -6,-6 l 0,-6 -12,0 z m -2,24 0,48.00003 c 0,1.108 0.892,2 2,2 l 76,0 c 1.108,0 2,-0.892 2,-2 l 0,-48.00003 -80,0 z m 40,8.00003 c 3.8423,0 7,3.1577 7,7 0,3.8423 -3.1577,7 -7,7 3.6308,0 6.9432,0.7991 9.5,2.2812 2.5568,1.4824 4.5,3.8431 4.5,6.7188 l 0,8 c -0.01,0.8528 -0.6191,1.6665 -1.4375,1.9062 -3.6739,1.0459 -6.7081,1.0058 -10.5313,1.0938 l -4.0624,0 c -3.8232,-0.088 -6.8574,-0.048 -10.5313,-1.0938 -0.8183,-0.2397 -1.4275,-1.0534 -1.4375,-1.9062 l 0,-8 c 0,-2.8757 1.9432,-5.2364 4.5,-6.7188 2.5568,-1.4821 5.8692,-2.2812 9.5,-2.2812 -3.8423,0 -7,-3.1577 -7,-7 0,-3.8423 3.1577,-7 7,-7 z m 0,4 c -1.6805,0 -3,1.3194 -3,3 0,1.6805 1.3195,3 3,3 1.6805,0 3,-1.3195 3,-3 0,-1.6806 -1.3195,-3 -3,-3 z m 0,14 c -3.0172,0 -5.7188,0.7174 -7.5,1.75 -1.7812,1.0326 -2.5,2.1852 -2.5,3.25 l 0,6.3125 c 2.4639,0.5069 4.7496,0.6135 8,0.6875 l 4,0 c 3.2504,-0.074 5.5361,-0.1806 8,-0.6875 l 0,-6.3125 c 0,-1.0648 -0.7188,-2.2174 -2.5,-3.25 -1.7812,-1.0326 -4.4828,-1.75 -7.5,-1.75 z" fill="#000000" stroke="none" marker="none" visibility="visible" display="inline" overflow="visible"></path></g></svg>